<svg width="25" height="25" viewBox="0 0 25 25" fill="none" xmlns="http://www.w3.org/2000/svg">
<path d="M5.20874 13.2912C5.20874 11.8769 5.20874 11.1697 5.49464 10.5481C5.78053 9.92649 6.31745 9.46628 7.39129 8.54584L8.43296 7.65299C10.3739 5.98931 11.3444 5.15747 12.5004 5.15747C13.6564 5.15747 14.6269 5.98931 16.5679 7.65298L17.6095 8.54584C18.6834 9.46628 19.2203 9.92649 19.5062 10.5481C19.7921 11.1697 19.7921 11.8769 19.7921 13.2912V17.7083C19.7921 19.6725 19.7921 20.6545 19.1819 21.2647C18.5717 21.8749 17.5896 21.8749 15.6254 21.8749H9.37541C7.41122 21.8749 6.42913 21.8749 5.81893 21.2647C5.20874 20.6545 5.20874 19.6725 5.20874 17.7083V13.2912Z" stroke="white" stroke-width="2"/>
<path d="M15.1046 21.875V16.625C15.1046 16.0727 14.6569 15.625 14.1046 15.625H10.8962C10.344 15.625 9.89624 16.0727 9.89624 16.625V21.875" stroke="white" stroke-width="2" stroke-linecap="round" stroke-linejoin="round"/>
</svg>
